<svg width="748" height="272" viewBox="0 0 748 272" fill="none" xmlns="http://www.w3.org/2000/svg">
<rect x="236.886" width="45.2611" height="119.081" transform="rotate(15.5316 236.886 0)" fill="black"/>
<rect x="327.784" width="45.2611" height="119.081" transform="rotate(15.5316 327.784 0)" fill="black"/>
<rect x="418.682" width="45.2611" height="119.081" transform="rotate(15.5316 418.682 0)" fill="black"/>
<rect x="509.58" width="45.2611" height="119.081" transform="rotate(15.5316 509.58 0)" fill="black"/>
<path d="M748 147H0C0 212.172 80.9292 272 158.288 272H596.258C711.463 272 745.421 188.667 748 147Z" fill="black"/>
<rect x="231.988" y="18.8894" width="45.2611" height="119.081" transform="rotate(15.5316 231.988 18.8894)" fill="#CA4900"/>
<rect x="322.886" y="18.8894" width="45.2611" height="119.081" transform="rotate(15.5316 322.886 18.8894)" fill="#CA4900"/>
<rect x="413.784" y="18.8894" width="45.2611" height="119.081" transform="rotate(15.5316 413.784 18.8894)" fill="#CA4900"/>
<rect x="504.682" y="18.8894" width="45.2611" height="119.081" transform="rotate(15.5316 504.682 18.8894)" fill="#CA4900"/>
<rect x="0.5" y="130.5" width="747" height="16" fill="#E9E9E9" stroke="black"/>
<rect x="92.5" y="112.5" width="563" height="17" fill="#E9E9E9" stroke="black"/>
<rect x="156.5" y="95.5" width="435" height="17" fill="#E9E9E9" stroke="black"/>
<circle cx="121" cy="168" r="6" fill="#EBFF00"/>
<circle cx="153" cy="168" r="6" fill="#EBFF00"/>
<circle cx="185" cy="168" r="6" fill="#EBFF00"/>
<circle cx="217" cy="168" r="6" fill="#EBFF00"/>
<circle cx="249" cy="168" r="6" fill="#EBFF00"/>
<circle cx="281" cy="168" r="6" fill="#EBFF00"/>
<circle cx="313" cy="168" r="6" fill="#EBFF00"/>
<circle cx="345" cy="168" r="6" fill="#EBFF00"/>
<circle cx="377" cy="168" r="6" fill="#EBFF00"/>
<circle cx="409" cy="168" r="6" fill="#EBFF00"/>
<circle cx="441" cy="168" r="6" fill="#EBFF00"/>
<circle cx="473" cy="168" r="6" fill="#EBFF00"/>
<circle cx="505" cy="168" r="6" fill="#EBFF00"/>
<circle cx="537" cy="168" r="6" fill="#EBFF00"/>
<circle cx="569" cy="168" r="6" fill="#EBFF00"/>
<circle cx="601" cy="168" r="6" fill="#EBFF00"/>
<circle cx="633" cy="168" r="6" fill="#EBFF00"/>
<circle cx="665" cy="168" r="6" fill="#EBFF00"/>
<circle cx="697" cy="168" r="6" fill="#EBFF00"/>
<circle cx="121" cy="139" r="3" fill="black"/>
<circle cx="153" cy="139" r="3" fill="black"/>
<circle cx="185" cy="139" r="3" fill="black"/>
<circle cx="217" cy="139" r="3" fill="black"/>
<circle cx="249" cy="139" r="3" fill="black"/>
<circle cx="281" cy="139" r="3" fill="black"/>
<circle cx="313" cy="139" r="3" fill="black"/>
<circle cx="345" cy="139" r="3" fill="black"/>
<circle cx="377" cy="139" r="3" fill="black"/>
<circle cx="409" cy="139" r="3" fill="black"/>
<circle cx="441" cy="139" r="3" fill="black"/>
<circle cx="473" cy="139" r="3" fill="black"/>
<circle cx="505" cy="139" r="3" fill="black"/>
<circle cx="537" cy="139" r="3" fill="black"/>
<circle cx="569" cy="139" r="3" fill="black"/>
<circle cx="601" cy="139" r="3" fill="black"/>
<circle cx="633" cy="139" r="3" fill="black"/>
<circle cx="665" cy="139" r="3" fill="black"/>
<circle cx="697" cy="139" r="3" fill="black"/>
</svg>
